<svg xmlns="http://www.w3.org/2000/svg" viewBox="0 0 960 720">
  <defs>
    <linearGradient id="bg" x1="0%" y1="0%" x2="100%" y2="100%">
      <stop offset="0%" stop-color="#edf4fb"/>
      <stop offset="100%" stop-color="#dce7f2"/>
    </linearGradient>
    <linearGradient id="sky" x1="0%" y1="0%" x2="100%" y2="100%">
      <stop offset="0%" stop-color="#1f4d78"/>
      <stop offset="100%" stop-color="#173a5d"/>
    </linearGradient>
    <linearGradient id="accent" x1="0%" y1="0%" x2="100%" y2="100%">
      <stop offset="0%" stop-color="#ffb11f"/>
      <stop offset="100%" stop-color="#db8d00"/>
    </linearGradient>
  </defs>
  <rect width="960" height="720" fill="url(#bg)"/>
  <circle cx="132" cy="118" r="88" fill="#ffffff" opacity=".62"/>
  <circle cx="830" cy="94" r="74" fill="#ffb11f" opacity=".16"/>
  <rect x="70" y="138" width="820" height="468" rx="40" fill="#ffffff" stroke="#d4e0ec" stroke-width="3"/>
  <rect x="110" y="186" width="370" height="372" rx="30" fill="url(#sky)"/>
  <text x="150" y="248" fill="#ffffff" font-size="38" font-family="Arial, sans-serif" font-weight="700">NOCIBE CEMENTERIE</text>
  <text x="150" y="292" fill="#d9e7f5" font-size="24" font-family="Arial, sans-serif">Commande, stock, logistique</text>
  <rect x="150" y="336" width="146" height="128" rx="20" fill="#ffffff" opacity=".12"/>
  <rect x="318" y="336" width="122" height="128" rx="20" fill="#ffb11f" opacity=".22"/>
  <rect x="150" y="490" width="118" height="26" rx="13" fill="#ffb11f"/>
  <rect x="286" y="490" width="104" height="26" rx="13" fill="#ffffff" opacity=".18"/>
  <rect x="520" y="186" width="330" height="372" rx="30" fill="#eff4f8"/>
  <rect x="560" y="228" width="82" height="206" rx="24" fill="#b6c4d1"/>
  <rect x="580" y="184" width="42" height="66" rx="18" fill="#b6c4d1"/>
  <rect x="666" y="198" width="88" height="236" rx="26" fill="#8e9ca9"/>
  <rect x="690" y="150" width="40" height="78" rx="18" fill="#8e9ca9"/>
  <rect x="538" y="440" width="272" height="74" rx="18" fill="#173a5d"/>
  <rect x="720" y="404" width="90" height="88" rx="18" fill="#ffb11f"/>
  <circle cx="606" cy="538" r="34" fill="#26323d"/>
  <circle cx="770" cy="538" r="34" fill="#26323d"/>
  <circle cx="606" cy="538" r="15" fill="#dfe7ef"/>
  <circle cx="770" cy="538" r="15" fill="#dfe7ef"/>
  <rect x="564" y="284" width="118" height="96" rx="18" fill="#ffffff"/>
  <path d="M614 286l40 28v72h-80v-72l40-28z" fill="url(#accent)"/>
  <rect x="592" y="340" width="44" height="14" rx="7" fill="#173a5d" opacity=".45"/>
  <text x="594" y="428" fill="#173a5d" font-size="22" font-family="Arial, sans-serif" font-weight="700">50 KG</text>
</svg>
