<svg xmlns="http://www.w3.org/2000/svg" viewBox="0 0 420 120" role="img" aria-labelledby="title">
  <title id="title">Logo NOCIBE</title>
  <defs>
    <linearGradient id="blueA" x1="14" x2="106" y1="106" y2="14" gradientUnits="userSpaceOnUse">
      <stop stop-color="#10B7D8"/>
      <stop offset="0.48" stop-color="#236FB5"/>
      <stop offset="1" stop-color="#083783"/>
    </linearGradient>
    <linearGradient id="blueB" x1="30" x2="92" y1="94" y2="26" gradientUnits="userSpaceOnUse">
      <stop stop-color="#EAF8FC"/>
      <stop offset="0.55" stop-color="#FFFFFF"/>
      <stop offset="1" stop-color="#D9EEF7"/>
    </linearGradient>
  </defs>
  <g>
    <path d="M25 22h69l-13 13H38L25 22Z" fill="#f8fbff" stroke="#083783" stroke-width="2"/>
    <path d="M94 22v70l-13 13V35l13-13Z" fill="#0B4EA2" stroke="#083783" stroke-width="2"/>
    <path d="M25 22v70l13 13V35L25 22Z" fill="#139BD7" stroke="#083783" stroke-width="2"/>
    <path d="M38 35h43v70H38V35Z" fill="url(#blueA)" stroke="#083783" stroke-width="2"/>
    <path d="M48 45h34v34L48 45Z" fill="#073783"/>
    <path d="M48 45v34h34L48 45Z" fill="#ffffff"/>
    <path d="M48 79h34l-20 20-14-20Z" fill="url(#blueB)"/>
    <path d="M38 105h43l13-13H51l-13 13Z" fill="#35BFE1" stroke="#083783" stroke-width="2"/>
    <path d="M81 35v70l13-13V22L81 35Z" fill="#082F7A" opacity="0.42"/>
  </g>
  <text x="132" y="76" fill="#083783" font-family="Arial, Helvetica, sans-serif" font-size="54" font-weight="800" letter-spacing="2">NOCIBE</text>
</svg>
