<svg xmlns="http://www.w3.org/2000/svg" viewBox="0 0 1280 760" role="img" aria-labelledby="title desc">
  <title id="title">Paiement de commande NOCIBE</title>
  <desc id="desc">Illustration de paiement en ligne avec carte bancaire, mobile money et sacs de ciment NOCIBE.</desc>
  <defs>
    <linearGradient id="bg" x1="0" x2="1" y1="0" y2="1">
      <stop offset="0" stop-color="#ffffff"/>
      <stop offset="1" stop-color="#eef5fb"/>
    </linearGradient>
    <linearGradient id="orange" x1="0" x2="0" y1="0" y2="1">
      <stop offset="0" stop-color="#ff8a1c"/>
      <stop offset="1" stop-color="#ef5f00"/>
    </linearGradient>
    <linearGradient id="blue" x1="0" x2="1" y1="0" y2="1">
      <stop offset="0" stop-color="#07315f"/>
      <stop offset="1" stop-color="#0d4f8b"/>
    </linearGradient>
    <linearGradient id="green" x1="0" x2="1" y1="0" y2="1">
      <stop offset="0" stop-color="#69c35a"/>
      <stop offset="1" stop-color="#117232"/>
    </linearGradient>
    <filter id="shadow" x="-20%" y="-20%" width="140%" height="140%">
      <feDropShadow dx="0" dy="16" stdDeviation="18" flood-color="#0b1220" flood-opacity=".18"/>
    </filter>
    <filter id="soft" x="-20%" y="-20%" width="140%" height="140%">
      <feDropShadow dx="0" dy="8" stdDeviation="8" flood-color="#0b1220" flood-opacity=".16"/>
    </filter>
  </defs>

  <rect width="1280" height="760" rx="12" fill="url(#bg)"/>
  <rect x="40" y="36" width="1200" height="682" rx="10" fill="#fff" filter="url(#shadow)"/>

  <g text-anchor="middle" font-family="Arial, Helvetica, sans-serif" fill="#082f5f">
    <text x="640" y="102" font-size="64" font-weight="800" letter-spacing="4">NOCIBE</text>
    <path d="M742 50l42-12-7 28z" fill="#e9321a"/>
    <line x1="82" y1="128" x2="1198" y2="128" stroke="#d9e0e8" stroke-width="2"/>
    <text x="640" y="178" font-size="34" font-weight="800">Paiement de votre commande</text>
    <text x="640" y="222" font-size="25">Montant a payer : <tspan font-weight="800">152 000 CFA</tspan></text>
    <line x1="128" y1="250" x2="1152" y2="250" stroke="#d9e0e8" stroke-width="2"/>
  </g>

  <g filter="url(#soft)">
    <rect x="354" y="278" width="572" height="326" rx="18" fill="#26323d"/>
    <rect x="372" y="294" width="536" height="286" rx="4" fill="#f8fbff"/>
    <circle cx="640" cy="286" r="3" fill="#5d7184"/>
    <rect x="306" y="596" width="668" height="28" rx="4" fill="#b8c1ca"/>
    <path d="M420 624h440l52 18H368z" fill="#d9dee4"/>
    <text x="640" y="340" text-anchor="middle" font-family="Arial, Helvetica, sans-serif" font-size="37" font-weight="800" fill="#08315f">NOCIBE</text>
    <path d="M704 309l26-8-5 18z" fill="#e9321a"/>
    <line x1="392" y1="356" x2="888" y2="356" stroke="#dce3ec"/>
    <text x="640" y="389" text-anchor="middle" font-family="Arial, Helvetica, sans-serif" font-size="22" font-weight="800" fill="#08315f">Paiement de votre commande</text>
    <text x="640" y="420" text-anchor="middle" font-family="Arial, Helvetica, sans-serif" font-size="17" fill="#08315f">Montant a payer : <tspan font-weight="800">152 000 CFA</tspan></text>
  </g>

  <g font-family="Arial, Helvetica, sans-serif" fill="#08315f">
    <rect x="420" y="448" width="234" height="126" rx="6" fill="#ffffff" stroke="#cbd5e1"/>
    <text x="452" y="470" font-size="16" font-weight="800">Paiement par Carte Bancaire</text>
    <rect x="440" y="492" width="194" height="30" rx="4" fill="#f7f9fc" stroke="#b9c3cf"/>
    <text x="455" y="513" font-size="15" font-weight="800">**** **** **** 2458</text>
    <rect x="440" y="534" width="194" height="30" rx="4" fill="#f7f9fc" stroke="#b9c3cf"/>
    <text x="455" y="555" font-size="15" font-weight="800">Jean Dupont</text>
    <rect x="440" y="580" width="194" height="36" rx="5" fill="url(#orange)"/>
    <text x="537" y="604" text-anchor="middle" font-size="20" font-weight="800" fill="#fff">Payer</text>

    <rect x="682" y="448" width="234" height="126" rx="6" fill="#ffffff" stroke="#cbd5e1"/>
    <text x="714" y="470" font-size="16" font-weight="800">Paiement Mobile Money</text>
    <rect x="702" y="492" width="194" height="30" rx="4" fill="#f7f9fc" stroke="#b9c3cf"/>
    <text x="718" y="513" font-size="15" font-weight="800">MTN</text>
    <rect x="702" y="534" width="194" height="30" rx="4" fill="#f7f9fc" stroke="#b9c3cf"/>
    <text x="718" y="555" font-size="15" font-weight="800">+237 6 87 12 34 56</text>
    <rect x="702" y="580" width="194" height="36" rx="5" fill="url(#orange)"/>
    <text x="799" y="604" text-anchor="middle" font-size="20" font-weight="800" fill="#fff">Valider</text>
  </g>

  <g filter="url(#soft)">
    <g transform="translate(92 360) rotate(-10)">
      <rect width="170" height="88" rx="8" fill="url(#blue)"/>
      <rect x="18" y="20" width="34" height="28" rx="4" fill="#f5c84b"/>
      <text x="86" y="52" text-anchor="middle" font-family="Arial, Helvetica, sans-serif" font-size="18" font-weight="800" fill="#fff">**** 2458</text>
      <path d="M136 22c18 12 18 34 0 46" fill="none" stroke="#fff" stroke-width="5" stroke-linecap="round"/>
    </g>
    <g transform="translate(156 482) rotate(10)">
      <rect width="158" height="202" rx="22" fill="#1c2733"/>
      <rect x="14" y="24" width="130" height="154" rx="8" fill="#203141"/>
      <rect x="41" y="65" width="76" height="58" rx="11" fill="#ffc20a"/>
      <text x="79" y="108" text-anchor="middle" font-family="Arial, Helvetica, sans-serif" font-size="38" font-weight="800" fill="#fff">Mi</text>
      <rect x="45" y="138" width="70" height="20" rx="5" fill="url(#orange)"/>
    </g>
  </g>

  <g filter="url(#soft)">
    <g transform="translate(916 424)">
      <ellipse cx="140" cy="160" rx="145" ry="16" fill="#d7dee8"/>
      <g fill="#f5bb24" stroke="#e39c12" stroke-width="2">
        <ellipse cx="72" cy="54" rx="32" ry="10"/>
        <rect x="40" y="54" width="64" height="72"/>
        <ellipse cx="72" cy="126" rx="32" ry="10"/>
        <ellipse cx="128" cy="78" rx="32" ry="10"/>
        <rect x="96" y="78" width="64" height="54"/>
        <ellipse cx="128" cy="132" rx="32" ry="10"/>
        <ellipse cx="190" cy="100" rx="32" ry="10"/>
        <rect x="158" y="100" width="64" height="42"/>
        <ellipse cx="190" cy="142" rx="32" ry="10"/>
      </g>
      <path d="M116 6l50 18v52c0 46-32 74-50 82-18-8-50-36-50-82V24z" fill="url(#green)" stroke="#fff" stroke-width="8"/>
      <path d="M91 78l19 19 39-49" fill="none" stroke="#fff" stroke-width="13" stroke-linecap="round" stroke-linejoin="round"/>

      <g transform="translate(24 130)">
        <rect x="0" y="0" width="126" height="174" rx="10" fill="#26323d"/>
        <rect x="0" y="42" width="126" height="132" fill="#f6f2e8"/>
        <text x="63" y="30" text-anchor="middle" font-family="Arial, Helvetica, sans-serif" font-size="24" font-weight="800" fill="#fff">NOCIBE</text>
        <text x="63" y="96" text-anchor="middle" font-family="Arial, Helvetica, sans-serif" font-size="25" font-weight="800" fill="#ffd32a">CIMENT</text>
        <text x="63" y="126" text-anchor="middle" font-family="Arial, Helvetica, sans-serif" font-size="17" font-weight="800" fill="#fff">RUAL CE</text>
      </g>
      <g transform="translate(164 130)">
        <rect x="0" y="0" width="126" height="174" rx="10" fill="#eef3fb" stroke="#cbd5e1"/>
        <text x="63" y="34" text-anchor="middle" font-family="Arial, Helvetica, sans-serif" font-size="24" font-weight="800" fill="#08315f">NOCIBE</text>
        <text x="63" y="92" text-anchor="middle" font-family="Arial, Helvetica, sans-serif" font-size="24" font-weight="800" fill="#1c5e9e">CIMENT</text>
        <text x="63" y="120" text-anchor="middle" font-family="Arial, Helvetica, sans-serif" font-size="24" font-weight="800" fill="#1c5e9e">BLANC</text>
      </g>
    </g>
  </g>

  <g font-family="Arial, Helvetica, sans-serif" font-size="20" font-weight="800" fill="#08315f" text-anchor="middle">
    <line x1="248" y1="666" x2="1032" y2="666" stroke="#d9e0e8"/>
    <text x="326" y="696">Paiement securise</text>
    <text x="640" y="696">Confirmation rapide</text>
    <text x="956" y="696">Livraison assuree</text>
    <text x="480" y="740" font-size="34">VISA</text>
    <circle cx="596" cy="730" r="25" fill="#eb001b"/>
    <circle cx="632" cy="730" r="25" fill="#f79e1b" opacity=".92"/>
    <rect x="704" y="706" width="78" height="44" rx="6" fill="#fbbf24"/>
    <text x="743" y="735" font-size="20" fill="#0d4f8b">MTN</text>
    <rect x="812" y="706" width="78" height="44" rx="6" fill="#101010"/>
    <text x="851" y="735" font-size="20" fill="#fff">Moov</text>
  </g>
</svg>
